<svg width="1138" height="575" viewBox="0 0 1138 575" fill="none" xmlns="http://www.w3.org/2000/svg">
<path d="M529.5 397H484L560.5 231L641.5 172L529.5 397Z" fill="#D28A14" stroke="#885118"/>
<path d="M263.5 249V271.5H192.5V312.5H256V334H192.5V376H264.5V397H167V249H263.5Z" fill="#12283F"/>
<path d="M400.5 288H377C375.5 278.001 367 272 366 271C348.4 265.4 335.667 268.667 331.5 271C329 272.167 323.4 275.9 321 281.5C318.6 287.1 321 294.833 322.5 298C325.167 301 333.7 307.6 346.5 310C362.5 313 370.5 316 382.5 321C392.1 325 398.5 334.333 400.5 338.5C405 347.167 410.1 368.2 394.5 383C375 401.5 360.5 401 346 402C334.4 402.8 321.833 398.667 317 396.5C311.833 393.5 300.6 385.9 297 379.5C293.4 373.1 292.167 361.167 292 356H315C317.167 361.667 323.173 372.616 327.5 375.5C332 378.5 336.5 379.5 340.5 379.5H353.5L358 378.5L362.5 377.5C369 375 379.5 369.322 379.5 357C379.5 345.5 367 338.5 367 338.5C367 338.5 350.333 334.5 340.5 332C340.5 332 326 329.7 316 324.5C303.5 318 300 309.5 298 307C296.4 305 295 294.167 294.5 289C294 285 295.3 274.2 304.5 263C313.7 251.8 330.333 247.334 337.5 246.5C341.333 246.167 350.8 245.7 358 246.5C365.2 247.3 369.333 248.5 370.5 249C395.7 256.6 401 278.167 400.5 288Z" fill="#12283F"/>
<path d="M448.5 249H419L483.5 396.5L498 366L448.5 249Z" fill="#12283F"/>
<path d="M652 248H628.5V397.5H652V248Z" fill="#12283F"/>
<path d="M789 248V271H719V312H782V333.5H719V375.5H789V397.5H694.5V248H789Z" fill="#12283F"/>
<path d="M824 249.143V397.5H847.5L846 287.5H848.5L891.5 372.5H903.5L946 287.5H948.5L947.5 397.5H971.5V248H942.5L897.5 340L854 249.143H824Z" fill="#12283F"/>
<path d="M263.5 249V271.5H192.5V312.5H256V334H192.5V376H264.5V397H167V249H263.5Z" stroke="#1C242F"/>
<path d="M400.5 288H377C375.5 278.001 367 272 366 271C348.4 265.4 335.667 268.667 331.5 271C329 272.167 323.4 275.9 321 281.5C318.6 287.1 321 294.833 322.5 298C325.167 301 333.7 307.6 346.5 310C362.5 313 370.5 316 382.5 321C392.1 325 398.5 334.333 400.5 338.5C405 347.167 410.1 368.2 394.5 383C375 401.5 360.5 401 346 402C334.4 402.8 321.833 398.667 317 396.5C311.833 393.5 300.6 385.9 297 379.5C293.4 373.1 292.167 361.167 292 356H315C317.167 361.667 323.173 372.616 327.5 375.5C332 378.5 336.5 379.5 340.5 379.5H353.5L358 378.5L362.5 377.5C369 375 379.5 369.322 379.5 357C379.5 345.5 367 338.5 367 338.5C367 338.5 350.333 334.5 340.5 332C340.5 332 326 329.7 316 324.5C303.5 318 300 309.5 298 307C296.4 305 295 294.167 294.5 289C294 285 295.3 274.2 304.5 263C313.7 251.8 330.333 247.334 337.5 246.5C341.333 246.167 350.8 245.7 358 246.5C365.2 247.3 369.333 248.5 370.5 249C395.7 256.6 401 278.167 400.5 288Z" stroke="#1C242F"/>
<path d="M448.5 249H419L483.5 396.5L498 366L448.5 249Z" stroke="#1C242F"/>
<path d="M652 248H628.5V397.5H652V248Z" stroke="#1C242F"/>
<path d="M789 248V271H719V312H782V333.5H719V375.5H789V397.5H694.5V248H789Z" stroke="#1C242F"/>
<path d="M824 249.143V397.5H847.5L846 287.5H848.5L891.5 372.5H903.5L946 287.5H948.5L947.5 397.5H971.5V248H942.5L897.5 340L854 249.143H824Z" stroke="#1C242F"/>
</svg>
