<?xml version="1.0" standalone="no"?>
<!DOCTYPE svg PUBLIC "-//W3C//DTD SVG 20010904//EN"
 "http://www.w3.org/TR/2001/REC-SVG-20010904/DTD/svg10.dtd">
<svg version="1.0" xmlns="http://www.w3.org/2000/svg"
 width="1216.000000pt" height="350.000000pt" viewBox="0 0 1216.000000 350.000000"
 preserveAspectRatio="xMidYMid meet">

<g transform="translate(0.000000,350.000000) scale(0.100000,-0.100000)"
fill="#000000" stroke="none">
<path d="M6539 3029 l-605 -440 -464 -1006 c-344 -747 -466 -1003 -473 -992
-5 9 -172 400 -371 870 l-362 854 -227 3 c-125 1 -227 0 -227 -3 0 -3 218
-503 485 -1112 l484 -1108 348 -3 349 -2 838 1685 c462 927 837 1687 834 1690
-2 3 -277 -194 -609 -436z m479 194 c-55 -115 -427 -863 -827 -1663 l-726
-1455 -327 -3 c-181 -1 -328 1 -328 6 0 4 255 562 568 1240 l567 1231 584 426
c321 234 585 425 587 425 1 0 -43 -93 -98 -207z"/>
<path d="M2620 2360 c-153 -13 -335 -83 -444 -172 -133 -108 -236 -301 -236
-441 0 -73 31 -252 51 -292 56 -116 165 -222 294 -285 88 -44 149 -61 500
-145 132 -31 249 -62 259 -67 41 -22 119 -105 143 -152 52 -102 25 -234 -62
-315 -102 -94 -248 -136 -442 -129 -115 5 -127 7 -190 39 -80 40 -119 87 -191
226 l-47 93 -172 0 c-94 0 -174 -3 -177 -8 -8 -13 14 -175 35 -252 35 -128 96
-200 275 -321 148 -99 350 -140 594 -119 221 18 344 57 480 150 162 112 246
207 291 330 34 91 34 272 2 375 -39 125 -133 252 -237 325 -88 60 -329 144
-561 195 -171 38 -301 91 -377 155 -65 54 -91 207 -49 288 29 55 98 117 166
149 53 24 75 28 187 31 143 5 259 -14 316 -51 48 -32 119 -130 138 -193 l18
-54 178 0 178 0 0 53 c0 132 -62 270 -170 378 -125 126 -264 186 -485 208
-116 12 -134 12 -265 1z"/>
<path d="M6950 1210 l0 -1130 185 0 185 0 -2 1128 -3 1127 -182 3 -183 2 0
-1130z"/>
<path d="M7940 1210 l0 -1130 715 0 715 0 0 170 0 170 -522 2 -523 3 -3 308
-2 307 475 0 475 0 -2 168 -3 167 -472 3 -473 2 0 300 0 300 525 0 525 0 0
180 0 180 -715 0 -715 0 0 -1130z"/>
<path d="M11330 1656 c-184 -376 -337 -683 -340 -681 -3 2 -149 305 -325 674
l-320 671 -232 0 -233 0 0 -1120 0 -1120 186 0 187 0 -6 293 c-4 160 -10 532
-13 825 -6 452 -5 532 7 532 8 0 142 -255 334 -635 l320 -635 98 0 97 0 317
635 c175 349 324 635 331 635 10 0 11 -156 6 -825 l-7 -825 186 0 187 0 0
1130 0 1130 -223 0 -223 0 -334 -684z"/>
<path d="M30 1205 l0 -1115 735 0 735 0 0 165 0 165 -540 0 -540 0 0 305 0
305 478 2 477 3 3 168 2 167 -480 0 -480 0 0 300 0 300 535 0 535 0 0 175 0
175 -730 0 -730 0 0 -1115z"/>
</g>
</svg>
