<svg width="155" height="181" viewBox="0 0 155 181" fill="none" xmlns="http://www.w3.org/2000/svg">
<path d="M68.0508 173.604L52.2217 180.194H49.1318L0 62.1943H21.6641L68.0508 173.604Z" fill="black"/>
<path d="M72.9564 141.808C82.3404 150.857 76.1194 180.256 76.1194 180.256L49.1081 180.337C49.1081 180.337 63.5723 132.758 72.9564 141.808Z" fill="#B87B03"/>
<path d="M154.352 0.847656C153.775 2.17162 152.927 4.11339 151.849 6.58496C149.693 11.5287 146.613 18.593 142.915 27.0723C135.518 44.0315 125.651 66.6554 115.767 89.3105C97.6602 130.816 79.1357 173.27 76.071 180.194H74.157L53.7429 166.861C53.6878 166.97 58.4591 156.067 66.0779 138.617C73.5375 121.532 83.4358 98.8458 93.3191 76.1914C100.267 60.2654 107.207 44.3549 113.286 30.417L154.721 0C154.614 0.245973 154.491 0.529117 154.352 0.847656Z" fill="#B87B03"/>
</svg>
