<svg width="250" height="160" viewBox="0 0 250 160" fill="none" xmlns="http://www.w3.org/2000/svg">
<path d="M250 106.345C250 116.571 250 121.684 248.085 125.74C246.398 129.312 243.691 132.304 240.306 134.339C236.462 136.651 231.375 137.162 221.2 138.184L4.11816 160V160C1.84376 160 0 158.156 0 155.882V32C0 20.7989 0 15.1984 2.17987 10.9202C4.09734 7.15695 7.15695 4.09734 10.9202 2.17987C15.1984 0 20.799 0 32 0H218C229.201 0 234.802 0 239.08 2.17987C242.843 4.09734 245.903 7.15695 247.82 10.9202C250 15.1984 250 20.7989 250 32V106.345Z" fill="url(#paint0_linear_1_35)"/>
<defs>
<linearGradient id="paint0_linear_1_35" x1="125" y1="0" x2="125" y2="160" gradientUnits="userSpaceOnUse">
<stop offset="0.2" stop-color="#45556C"/>
<stop offset="1" stop-color="#314158"/>
</linearGradient>
</defs>
</svg>
